<?xml version="1.0" encoding="UTF-8"?>
<svg xmlns="http://www.w3.org/2000/svg" xmlns:xlink="http://www.w3.org/1999/xlink" width="1048px" height="1048px" viewBox="0 0 1048 1048" version="1.1">
<g id="surface1">
<path style=" stroke:none;fill-rule:nonzero;fill:rgb(0%,0%,0%);fill-opacity:1;" d="M 213.386719 316.957031 C 199.46875 343.261719 182.785156 368.234375 157.710938 399.960938 C 134.171875 429.945312 121.890625 446.320312 115.957031 455.941406 C 98.558594 483.882812 90.265625 512.640625 91.394531 541.398438 C 92.210938 563.199219 95.589844 576.808594 104.902344 596.152344 C 128.03125 644.355469 177.464844 673.011719 229.046875 668.203125 C 274.179688 664.007812 311.023438 640.46875 333.4375 601.371094 C 350.527344 571.589844 354.621094 533.210938 344.386719 497.902344 C 337.632812 474.363281 324.429688 452.257812 297.71875 419.097656 C 261.078125 373.65625 243.269531 347.867188 227.203125 316.957031 L 220.347656 303.757812 Z M 237.640625 390.542969 C 250.230469 409.273438 258.316406 420.324219 275.714844 442.636719 C 295.261719 467.710938 304.164062 482.859375 310.511719 501.792969 C 320.949219 533.519531 316.855469 567.394531 299.152344 593.695312 C 292.703125 603.417969 277.554688 617.644531 267.832031 623.070312 C 252.6875 631.769531 236.824219 635.863281 218.503906 635.863281 C 193.226562 635.863281 172.449219 627.980469 154.847656 611.605469 C 148.398438 605.671875 135.09375 587.863281 135.09375 585.304688 C 135.09375 584.894531 136.9375 584.382812 139.085938 584.179688 C 142.871094 583.871094 143.382812 584.179688 147.273438 589.191406 C 156.277344 600.859375 174.804688 612.730469 189.949219 616.519531 C 219.628906 624.09375 251.457031 617.644531 272.949219 599.734375 C 279.398438 594.414062 292.601562 579.878906 292.703125 578.140625 C 292.703125 577.832031 290.042969 576.808594 286.871094 575.785156 C 273.257812 571.589844 263.433594 563.199219 257.597656 550.917969 C 254.632812 544.570312 254.324219 543.136719 254.324219 533.722656 C 254.324219 524.820312 254.632812 522.773438 257.085938 517.65625 C 260.363281 510.59375 266.195312 504.144531 273.667969 499.4375 C 276.738281 497.492188 279.296875 495.546875 279.398438 495.140625 C 279.398438 493.5 270.902344 488.894531 265.378906 487.566406 C 256.167969 485.417969 241.632812 485.722656 234.058594 488.28125 C 218.402344 493.5 206.222656 504.453125 196.808594 521.953125 C 186.878906 540.476562 179 549.074219 166.105469 555.417969 C 159.859375 558.488281 157.097656 559.207031 150.546875 559.617188 C 138.265625 560.332031 132.023438 557.464844 127.621094 549.277344 C 125.574219 545.390625 125.371094 543.546875 125.472656 530.140625 C 125.472656 517.144531 125.882812 514.175781 128.238281 506.398438 C 133.96875 487.566406 144.304688 469.65625 163.238281 445.707031 C 186.46875 416.335938 214.207031 377.648438 219.527344 367.414062 L 221.371094 363.933594 L 223.722656 368.640625 C 225.054688 371.199219 231.296875 381.128906 237.640625 390.542969 Z M 237.640625 390.542969 "/>
<path style=" stroke:none;fill-rule:nonzero;fill:rgb(0%,0%,0%);fill-opacity:1;" d="M 397.09375 514.789062 L 397.09375 576.195312 L 421.65625 576.195312 L 421.65625 453.382812 L 397.09375 453.382812 Z M 397.09375 514.789062 "/>
<path style=" stroke:none;fill-rule:nonzero;fill:rgb(0%,0%,0%);fill-opacity:1;" d="M 526.761719 454.097656 C 526.355469 454.40625 526.046875 482.039062 526.046875 515.503906 L 526.046875 576.195312 L 550.609375 576.195312 L 550.609375 562.789062 C 550.609375 549.382812 550.609375 549.382812 553.679688 545.902344 L 556.648438 542.421875 L 557.875 544.777344 C 558.59375 546.003906 563.402344 553.578125 568.621094 561.558594 L 578.140625 576.195312 L 592.570312 576.195312 C 600.449219 576.195312 606.898438 575.992188 606.898438 575.785156 C 606.898438 575.480469 601.882812 568.007812 595.742188 559.105469 C 573.023438 525.945312 574.148438 527.785156 575.582031 526.046875 C 585.816406 513.765625 603.828125 490.226562 603.828125 489.101562 C 603.828125 488.589844 598.097656 488.179688 591.136719 488.179688 C 579.878906 488.179688 578.34375 488.382812 577.117188 490.125 C 576.296875 491.148438 570.15625 499.128906 563.402344 507.726562 L 551.121094 523.285156 L 550.8125 488.382812 L 550.609375 453.382812 L 539.042969 453.382812 C 532.597656 453.382812 527.070312 453.691406 526.761719 454.097656 Z M 526.761719 454.097656 "/>
<path style=" stroke:none;fill-rule:nonzero;fill:rgb(0%,0%,0%);fill-opacity:1;" d="M 472.726562 488.691406 C 470.167969 489.511719 466.074219 492.070312 463.617188 494.320312 C 461.160156 496.570312 459.113281 498.414062 459.011719 498.414062 C 458.910156 498.414062 459.011719 496.058594 459.320312 493.296875 L 459.832031 488.179688 L 434.960938 488.179688 L 434.960938 576.195312 L 459.523438 576.195312 L 459.523438 548.765625 C 459.523438 522.363281 459.625 521.238281 461.878906 516.835938 C 464.742188 511.105469 469.246094 508.339844 475.695312 508.445312 C 481.21875 508.648438 484.800781 510.898438 487.359375 515.914062 C 489 518.984375 489.203125 522.773438 489.203125 547.742188 L 489.203125 576.195312 L 513.765625 576.195312 L 513.765625 546.003906 C 513.765625 507.421875 512.640625 501.894531 503.328125 493.910156 C 495.957031 487.566406 483.472656 485.417969 472.726562 488.691406 Z M 472.726562 488.691406 "/>
<path style=" stroke:none;fill-rule:nonzero;fill:rgb(0%,0%,0%);fill-opacity:1;" d="M 754.273438 488.691406 C 747.519531 490.636719 742.09375 494.117188 738.511719 498.722656 C 735.75 502.304688 732.371094 509.570312 733.089844 510.285156 C 733.394531 510.59375 737.589844 511.820312 742.402344 513.152344 L 751.304688 515.503906 L 753.964844 512.027344 C 758.980469 505.476562 766.144531 503.734375 772.492188 507.625 C 776.277344 509.980469 779.144531 515.609375 778.632812 519.804688 C 778.324219 522.261719 777.914062 522.464844 773.207031 522.667969 C 742.300781 524.203125 728.6875 533.3125 728.378906 552.554688 C 728.175781 564.425781 734.316406 573.433594 744.960938 577.015625 C 746.90625 577.730469 752.226562 578.242188 756.832031 578.242188 C 763.6875 578.242188 766.042969 577.832031 770.546875 575.582031 C 773.515625 574.046875 776.890625 571.488281 778.121094 569.851562 L 780.371094 566.78125 L 780.882812 571.28125 L 781.394531 575.683594 L 792.039062 575.992188 L 802.578125 576.296875 L 802.171875 544.265625 L 801.761719 512.230469 L 798.792969 505.78125 C 795.414062 498.210938 789.582031 492.683594 782.316406 489.917969 C 775.457031 487.257812 761.539062 486.746094 754.273438 488.691406 Z M 779.144531 539.453125 C 780.167969 543.242188 778.015625 552.859375 775.5625 555.523438 C 766.144531 565.652344 748.335938 559.921875 752.226562 548.050781 C 754.476562 541.296875 761.949219 537.507812 773.308594 537.40625 C 777.8125 537.304688 778.632812 537.613281 779.144531 539.453125 Z M 779.144531 539.453125 "/>
<path style=" stroke:none;fill-rule:nonzero;fill:rgb(0%,0%,0%);fill-opacity:1;" d="M 923.652344 488.078125 C 903.285156 493.398438 891.003906 513.457031 892.746094 538.226562 C 894.484375 562.992188 911.269531 578.753906 935.933594 578.652344 C 945.144531 578.652344 952.105469 576.707031 959.269531 572.101562 C 964.28125 568.929688 970.832031 561.046875 969.503906 559.71875 C 968.992188 559.308594 965.613281 557.261719 961.929688 555.316406 L 955.070312 551.835938 L 952.308594 554.703125 C 947.191406 560.023438 936.753906 562.175781 929.179688 559.71875 C 924.367188 558.082031 918.535156 552.246094 917.101562 547.640625 C 914.851562 539.863281 912.703125 540.375 944.632812 540.375 L 973.289062 540.375 L 973.289062 531.878906 C 973.289062 512.230469 965 497.289062 950.160156 490.535156 C 944.222656 487.871094 929.691406 486.441406 923.652344 488.078125 Z M 941.359375 507.523438 C 945.554688 509.671875 949.339844 515.503906 949.953125 520.417969 L 950.261719 523.488281 L 932.964844 523.796875 L 915.773438 524 L 916.488281 520.214844 C 918.636719 508.238281 930.714844 502.097656 941.359375 507.523438 Z M 941.359375 507.523438 "/>
<path style=" stroke:none;fill-rule:nonzero;fill:rgb(0%,0%,0%);fill-opacity:1;" d="M 605.566406 488.894531 C 605.261719 489.40625 608.023438 499.4375 611.605469 511.207031 C 615.1875 523.078125 620.917969 542.523438 624.5 554.394531 L 630.949219 576.195312 L 653.875 576.195312 L 654.796875 572.816406 C 655.308594 571.078125 658.378906 560.128906 661.652344 548.5625 C 664.824219 536.996094 667.792969 526.457031 668.203125 525.226562 C 668.714844 523.386719 670.863281 529.9375 676.082031 549.277344 L 683.246094 575.683594 L 694.605469 575.992188 L 706.070312 576.296875 L 709.140625 566.269531 C 710.777344 560.742188 716.816406 541.195312 722.445312 522.773438 C 728.175781 504.351562 732.78125 489 732.78125 488.691406 C 732.78125 488.382812 727.152344 488.28125 720.296875 488.382812 L 707.808594 488.691406 L 707.09375 491.761719 C 706.683594 493.398438 704.125 503.328125 701.257812 513.765625 C 698.496094 524.203125 695.835938 534.234375 695.425781 535.972656 C 694.710938 539.660156 692.867188 541.5 692.867188 538.738281 C 692.867188 537.101562 683.042969 499.746094 680.484375 491.453125 L 679.359375 488.179688 L 659.195312 488.179688 L 657.96875 492.476562 C 652.75 512.539062 645.585938 538.125 644.96875 539.761719 C 644.355469 541.195312 643.539062 539.042969 641.898438 532.085938 C 640.671875 526.761719 637.703125 514.890625 635.246094 505.578125 L 630.746094 488.691406 L 618.359375 488.382812 C 611.605469 488.28125 605.773438 488.488281 605.566406 488.894531 Z M 605.566406 488.894531 "/>
<path style=" stroke:none;fill-rule:nonzero;fill:rgb(0%,0%,0%);fill-opacity:1;" d="M 805.445312 488.488281 C 805.445312 488.792969 810.765625 504.453125 828.0625 554.90625 L 835.433594 576.195312 L 864.292969 576.195312 L 869.101562 562.582031 C 874.425781 547.4375 894.484375 489 894.484375 488.488281 C 894.484375 488.28125 888.753906 488.179688 881.792969 488.179688 L 869.101562 488.179688 L 868.386719 490.941406 C 867.363281 495.242188 851.296875 547.949219 850.679688 548.972656 C 850.273438 549.789062 846.792969 539.148438 836.25 504.554688 L 831.441406 488.691406 L 818.441406 488.382812 C 811.277344 488.28125 805.445312 488.28125 805.445312 488.488281 Z M 805.445312 488.488281 "/>
</g>
</svg>
