<?xml version="1.0" standalone="no"?>
<!DOCTYPE svg PUBLIC "-//W3C//DTD SVG 20010904//EN"
 "http://www.w3.org/TR/2001/REC-SVG-20010904/DTD/svg10.dtd">
<svg version="1.0" xmlns="http://www.w3.org/2000/svg"
 width="1024.000000pt" height="1024.000000pt" viewBox="0 0 1024.000000 1024.000000"
 preserveAspectRatio="xMidYMid meet">

<g transform="translate(0.000000,1024.000000) scale(0.100000,-0.100000)"
fill="#000000" stroke="none">
<path d="M2085 7143 c-136 -257 -299 -501 -544 -811 -230 -293 -350 -453 -408
-547 -170 -273 -251 -554 -240 -835 8 -213 41 -346 132 -535 226 -471 709
-751 1213 -704 441 41 801 271 1020 653 167 291 207 666 107 1011 -66 230
-195 446 -456 770 -358 444 -532 696 -689 998 l-67 129 -68 -129z m237 -719
c123 -183 202 -291 372 -509 191 -245 278 -393 340 -578 102 -310 62 -641
-111 -898 -63 -95 -211 -234 -306 -287 -148 -85 -303 -125 -482 -125 -247 0
-450 77 -622 237 -63 58 -193 232 -193 257 0 4 18 9 39 11 37 3 42 0 80 -49
88 -114 269 -230 417 -267 290 -74 601 -11 811 164 63 52 192 194 193 211 0 3
-26 13 -57 23 -133 41 -229 123 -286 243 -29 62 -32 76 -32 168 0 87 3 107 27
157 32 69 89 132 162 178 30 19 55 38 56 42 0 16 -83 61 -137 74 -90 21 -232
18 -306 -7 -153 -51 -272 -158 -364 -329 -97 -181 -174 -265 -300 -327 -61
-30 -88 -37 -152 -41 -120 -7 -181 21 -224 101 -20 38 -22 56 -21 187 0 127 4
156 27 232 56 184 157 359 342 593 227 287 498 665 550 765 l18 34 23 -46 c13
-25 74 -122 136 -214z"/>
<path d="M3880 5210 l0 -600 120 0 120 0 0 600 0 600 -120 0 -120 0 0 -600z"/>
<path d="M5147 5803 c-4 -3 -7 -273 -7 -600 l0 -593 120 0 120 0 0 131 c0 131
0 131 30 165 l29 34 12 -23 c7 -12 54 -86 105 -164 l93 -143 141 0 c77 0 140
2 140 4 0 3 -49 76 -109 163 -222 324 -211 306 -197 323 100 120 276 350 276
361 0 5 -56 9 -124 9 -110 0 -125 -2 -137 -19 -8 -10 -68 -88 -134 -172 l-120
-152 -3 341 -2 342 -113 0 c-63 0 -117 -3 -120 -7z"/>
<path d="M4619 5465 c-25 -8 -65 -33 -89 -55 -24 -22 -44 -40 -45 -40 -1 0 0
23 3 50 l5 50 -122 0 -121 0 0 -430 0 -430 120 0 120 0 0 268 c0 258 1 269 23
312 28 56 72 83 135 82 54 -2 89 -24 114 -73 16 -30 18 -67 18 -311 l0 -278
120 0 120 0 0 295 c0 377 -11 431 -102 509 -72 62 -194 83 -299 51z"/>
<path d="M7370 5465 c-66 -19 -119 -53 -154 -98 -27 -35 -60 -106 -53 -113 3
-3 44 -15 91 -28 l87 -23 26 34 c49 64 119 81 181 43 37 -23 65 -78 60 -119
-3 -24 -7 -26 -53 -28 -302 -15 -435 -104 -438 -292 -2 -116 58 -204 162 -239
19 -7 71 -12 116 -12 67 0 90 4 134 26 29 15 62 40 74 56 l22 30 5 -44 5 -43
104 -3 103 -3 -4 313 -4 313 -29 63 c-33 74 -90 128 -161 155 -67 26 -203 31
-274 12z m243 -496 c10 -37 -11 -131 -35 -157 -92 -99 -266 -43 -228 73 22 66
95 103 206 104 44 1 52 -2 57 -20z"/>
<path d="M9025 5471 c-199 -52 -319 -248 -302 -490 17 -242 181 -396 422 -395
90 0 158 19 228 64 49 31 113 108 100 121 -5 4 -38 24 -74 43 l-67 34 -27 -28
c-50 -52 -152 -73 -226 -49 -47 16 -104 73 -118 118 -22 76 -43 71 269 71
l280 0 0 83 c0 192 -81 338 -226 404 -58 26 -200 40 -259 24z m173 -190 c41
-21 78 -78 84 -126 l3 -30 -169 -3 -168 -2 7 37 c21 117 139 177 243 124z"/>
<path d="M5917 5463 c-3 -5 24 -103 59 -218 35 -116 91 -306 126 -422 l63
-213 112 0 112 0 9 33 c5 17 35 124 67 237 31 113 60 216 64 228 5 18 26 -46
77 -235 l70 -258 111 -3 112 -3 30 98 c16 54 75 245 130 425 56 180 101 330
101 333 0 3 -55 4 -122 3 l-122 -3 -7 -30 c-4 -16 -29 -113 -57 -215 -27 -102
-53 -200 -57 -217 -7 -36 -25 -54 -25 -27 0 16 -96 381 -121 462 l-11 32 -98
0 -99 0 -12 -42 c-51 -196 -121 -446 -127 -462 -6 -14 -14 7 -30 75 -12 52
-41 168 -65 259 l-44 165 -121 3 c-66 1 -123 -1 -125 -5z"/>
<path d="M7870 5467 c0 -3 52 -156 221 -649 l72 -208 141 0 141 0 47 133 c52
148 248 719 248 724 0 2 -56 3 -124 3 l-124 0 -7 -27 c-10 -42 -167 -557 -173
-567 -4 -8 -38 96 -141 434 l-47 155 -127 3 c-70 1 -127 1 -127 -1z"/>
</g>
</svg>
