<?xml version="1.0" encoding="UTF-8"?>
<svg version="1.1" xmlns="http://www.w3.org/2000/svg" width="900" height="400">
<path d="M0 0 C4.39537841 4.81498494 6.92448421 10.53602817 9.8125 16.3125 C19.86823607 35.99970983 31.76421875 54.31902549 45 72 C46.03039056 73.39029705 47.06034128 74.78092019 48.08984375 76.171875 C54.13976294 84.3178597 60.34535243 92.33318519 66.64550781 100.28662109 C68.0051954 102.00657198 69.35906321 103.73093402 70.7109375 105.45703125 C71.15993408 106.0301001 71.60893066 106.60316895 72.0715332 107.19360352 C72.98450067 108.35916681 73.89709654 109.52502126 74.80932617 110.69116211 C77.14438549 113.66804307 79.50095425 116.62316523 81.90234375 119.546875 C89.88574933 129.29793118 97.05695281 139.4861745 104 150 C104.39171387 150.58458984 104.78342773 151.16917969 105.18701172 151.77148438 C121.69867712 176.52756363 130.48089279 203.99108016 130.3125 233.75 C130.31001251 234.45476471 130.30752502 235.15952942 130.30496216 235.88565063 C130.2470459 246.5065905 129.91849479 256.71773281 127 267 C126.76893555 267.81968262 126.53787109 268.63936523 126.29980469 269.48388672 C119.81721333 291.76524633 109.0530872 310.2328075 93 327 C92.31679687 327.74636719 91.63359375 328.49273437 90.9296875 329.26171875 C69.38721502 352.03632526 36.08895512 365.28883181 5.015625 366.23828125 C-31.73321355 366.84406119 -63.28392394 355.71554897 -90.09204102 330.30834961 C-97.03048074 323.52520996 -102.8008673 316.18066723 -108 308 C-108.57959473 307.09024414 -108.57959473 307.09024414 -109.17089844 306.16210938 C-127.36776874 277.02881326 -134.75581399 239.77884115 -127.01953125 205.99609375 C-126.68337996 204.66312588 -126.34338204 203.33112351 -126 202 C-125.82259277 201.26152832 -125.64518555 200.52305664 -125.46240234 199.76220703 C-120.36430518 178.93308571 -110.69998532 159.23569437 -98 142 C-97.28585938 141.01902344 -96.57171875 140.03804687 -95.8359375 139.02734375 C-94.00521766 136.55420768 -92.15159398 134.10160474 -90.27636719 131.66210938 C-88.85828586 129.81545718 -87.4484154 127.96269658 -86.0390625 126.109375 C-80.42008356 118.72939113 -74.75843505 111.38322939 -69.0625 104.0625 C-68.48153564 103.31516602 -67.90057129 102.56783203 -67.30200195 101.79785156 C-64.38022103 98.04317938 -61.44788295 94.29754029 -58.49609375 90.56640625 C-40.55060643 67.81758199 -24.52236062 43.78948316 -10.39453125 18.49658203 C-9.01927695 16.03451087 -7.63603396 13.57710998 -6.25 11.12109375 C-4.16062812 7.4174239 -2.07804122 3.71003824 0 0 Z M1 63 C-0.12040002 64.55906805 -1.19265191 66.15274251 -2.24609375 67.7578125 C-3.24697021 69.27435425 -3.24697021 69.27435425 -4.26806641 70.8215332 C-5.34193604 72.45674927 -5.34193604 72.45674927 -6.4375 74.125 C-12.45018292 83.22136113 -18.5496083 92.20870251 -25 101 C-25.53334961 101.73025391 -26.06669922 102.46050781 -26.61621094 103.21289062 C-34.99841049 114.68523737 -43.515 126.03536295 -52.3046875 137.19921875 C-68.90882733 158.32612801 -83.86329811 179.09897048 -92 205 C-92.3815625 206.2065625 -92.763125 207.413125 -93.15625 208.65625 C-94.60980308 214.78691295 -94.44916349 221.10940049 -94.5 227.375 C-94.54125 228.63828125 -94.5825 229.9015625 -94.625 231.203125 C-94.69478522 239.59479757 -93.48857624 245.48035669 -88 252 C-82.31191272 256.93662196 -75.09755484 256.69474876 -67.90625 256.3828125 C-62.62329751 255.86508316 -58.62986469 254.52825376 -54 252 C-52.77410156 251.38125 -52.77410156 251.38125 -51.5234375 250.75 C-37.45350281 243.0834102 -30.08254684 230.49592966 -22.3203125 217.1015625 C-13.0863796 201.2790937 -2.07546857 191.17303546 15.19921875 184.82421875 C20.41019949 183.69419107 25.43236219 183.63161398 30.75 183.625 C31.7709375 183.60050781 32.791875 183.57601562 33.84375 183.55078125 C43.35572577 183.51456814 50.95471839 185.97394678 59 191 C57.76951678 194.69144966 56.66469285 195.08521704 53.4375 197.125 C44.44747643 203.23410042 38.44747744 210.65756768 35 221 C33.25386073 236.19330962 35.66246207 247.24995178 45.25 259.4375 C52.26074779 266.74557861 61.34527836 271.25853583 71 274 C71.66 274 72.32 274 73 274 C69.78903224 280.5615428 65.24825073 284.98944179 60 290 C59.195625 290.845625 58.39125 291.69125 57.5625 292.5625 C38.59278208 310.60686583 15.35336858 316.52010761 -10.34375 316.2109375 C-34.40657356 315.55863204 -55.31332553 305.03251228 -72 288 C-72.93672926 286.80715235 -73.85809776 285.60172638 -74.75 284.375 C-76.89647144 281.58986613 -76.89647144 281.58986613 -80.8125 281.625 C-81.864375 281.74875 -82.91625 281.8725 -84 282 C-77.43400092 300.37819843 -59.01237643 315.60561273 -42 324 C-37.73677984 325.94976656 -33.46456285 327.5730695 -29 329 C-28.01773438 329.3196875 -27.03546875 329.639375 -26.0234375 329.96875 C-2.25918563 336.33733363 24.47171801 332.51412683 46 321 C53.44559537 316.60770736 59.74002522 310.9186989 66 305 C67.27230469 303.84177734 67.27230469 303.84177734 68.5703125 302.66015625 C85.45834875 286.72755936 95.0988322 262.07773196 96 239 C96.03996094 238.16855469 96.07992187 237.33710938 96.12109375 236.48046875 C97.13384977 195.79150631 74.27238238 163.83881364 50.40234375 133.359375 C33.33108717 111.53513386 17.14887841 88.81672522 3.19921875 64.85791016 C2.80347656 64.2447998 2.40773438 63.63168945 2 63 C1.67 63 1.34 63 1 63 Z " fill="#000000" transform="translate(138,18)"/>
<path d="M0 0 C8.58 0 17.16 0 26 0 C29.375 10.125 29.375 10.125 30.25854492 13.60180664 C30.55851631 14.77200096 30.55851631 14.77200096 30.86454773 15.96583557 C31.16942863 17.17577431 31.16942863 17.17577431 31.48046875 18.41015625 C31.80704216 19.68952309 31.80704216 19.68952309 32.14021301 20.99473572 C32.82573301 23.68321489 33.50669451 26.37282356 34.1875 29.0625 C34.65529624 30.9004677 35.12339249 32.73835907 35.59179688 34.57617188 C36.7313306 39.04990738 37.86678144 43.52466086 39 48 C40.48645733 45.21309657 41.50564365 42.55357458 42.32861328 39.50683594 C42.56871124 38.62622498 42.8088092 37.74561401 43.05618286 36.83831787 C43.30834564 35.89651672 43.56050842 34.95471558 43.8203125 33.984375 C44.08383514 33.01340881 44.34735779 32.04244263 44.61886597 31.04205322 C45.45822671 27.94576407 46.29168335 24.84792068 47.125 21.75 C47.69362182 19.64833232 48.2626277 17.54676852 48.83203125 15.4453125 C50.22653573 10.29824932 51.61304425 5.14912623 53 0 C60.26 0 67.52 0 75 0 C78.98280386 12.0728742 82.20881868 24.28988715 85.3203125 36.60961914 C85.49004578 37.27889938 85.65977905 37.94817963 85.83465576 38.63774109 C86.30254903 40.4849646 86.76709427 42.33303521 87.23144531 44.18115234 C87.8802579 46.9240058 87.8802579 46.9240058 89 49 C93.29 32.83 97.58 16.66 102 0 C110.58 0 119.16 0 128 0 C127.26535208 5.14253547 126.41857163 9.35808173 124.91455078 14.24536133 C124.70464508 14.93257767 124.49473938 15.61979401 124.2784729 16.32783508 C123.58900493 18.58077639 122.89220606 20.83137696 122.1953125 23.08203125 C121.71021803 24.66218536 121.22559661 26.24248476 120.74142456 27.82292175 C119.46815273 31.97478061 118.18868919 36.12470539 116.90783691 40.27423096 C115.61336206 44.47143397 114.32439568 48.6703271 113.03515625 52.86914062 C111.58141148 57.6030019 110.1271598 62.33670039 108.66848755 67.06904602 C106.41805282 74.3711728 104.17712051 81.67558725 102 89 C93.94494233 89.11582794 86.02436617 88.71441098 78 88 C75.87724273 82.53922808 74.08974216 77.10070892 72.5546875 71.44921875 C72.33934357 70.66859573 72.12399963 69.88797272 71.90213013 69.08369446 C71.22295854 66.61923262 70.54878065 64.15344057 69.875 61.6875 C69.19306506 59.20399593 68.51009637 56.72077971 67.82644653 54.23774719 C67.40341417 52.69998574 66.98155212 51.16190174 66.56100464 49.62345886 C65.76613229 46.72400951 64.95094443 43.8528333 64 41 C61.77993461 46.69404906 59.95313646 52.38633907 58.3359375 58.27734375 C58.09839752 59.12929825 57.86085754 59.98125275 57.61611938 60.85902405 C56.86570404 63.55092473 56.11981837 66.24404574 55.375 68.9375 C54.38660326 72.51018183 53.39382751 76.08160492 52.3984375 79.65234375 C52.17239838 80.47516342 51.94635925 81.29798309 51.71347046 82.14573669 C50.11273001 87.88726999 50.11273001 87.88726999 49 89 C47.21928754 89.08726223 45.4351686 89.10699041 43.65234375 89.09765625 C42.57275391 89.09443359 41.49316406 89.09121094 40.38085938 89.08789062 C39.24455078 89.07951172 38.10824219 89.07113281 36.9375 89.0625 C35.79732422 89.05798828 34.65714844 89.05347656 33.48242188 89.04882812 C30.65489649 89.03699747 27.8274736 89.0205141 25 89 C22.33023925 79.98477153 19.66120748 70.96932764 16.9930687 61.953619 C15.75370271 57.76585111 14.51409951 53.57815376 13.27392578 49.390625 C12.0738109 45.33832379 10.87435621 41.28582768 9.67533112 37.23320389 C9.22113087 35.69844438 8.76670536 34.16375151 8.31203461 32.62913132 C7.06439294 28.4177558 5.8217067 24.20498249 4.58573914 19.99016571 C3.9954355 17.98449119 3.39825854 15.98093997 2.80090332 13.97735596 C2.43380249 12.72879822 2.06670166 11.48024048 1.68847656 10.19384766 C1.36220276 9.0933609 1.03592896 7.99287415 0.69976807 6.85903931 C0 4 0 4 0 0 Z " fill="#000000" transform="translate(523,203)"/>
<path d="M0 0 C1.00023193 0.00523682 2.00046387 0.01047363 3.03100586 0.01586914 C4.1105957 0.0190918 5.19018555 0.02231445 6.30249023 0.02563477 C8.00695312 0.03820312 8.00695312 0.03820312 9.74584961 0.05102539 C11.45611328 0.05779297 11.45611328 0.05779297 13.20092773 0.06469727 C16.02845312 0.07652792 18.85587601 0.09301129 21.68334961 0.11352539 C21.69365707 0.80764023 21.70396454 1.50175507 21.71458435 2.21690369 C21.81299423 8.7922899 21.91556596 15.36759691 22.02268887 21.94284725 C22.07760421 25.32238245 22.13096986 28.70192664 22.18066406 32.08154297 C22.23873197 35.97639379 22.30231981 39.87112224 22.36694336 43.76586914 C22.38365585 44.96622299 22.40036835 46.16657684 22.41758728 47.40330505 C22.52785718 53.70873356 22.86405448 59.85947537 23.68334961 66.11352539 C30.84327022 57.37123988 37.9307044 48.59573822 44.75756836 39.59008789 C46.68334961 37.11352539 46.68334961 37.11352539 48.68334961 35.11352539 C51.29711914 34.88647461 51.29711914 34.88647461 54.56616211 34.91821289 C56.31606445 34.92788086 56.31606445 34.92788086 58.10131836 34.93774414 C59.93629883 34.96288086 59.93629883 34.96288086 61.80834961 34.98852539 C63.0394043 34.99754883 64.27045898 35.00657227 65.53881836 35.01586914 C68.58718776 35.03949991 71.63517343 35.07244485 74.68334961 35.11352539 C73.81871299 39.19154572 71.86200067 42.04069982 69.43334961 45.36352539 C68.78257446 46.26530518 68.78257446 46.26530518 68.11865234 47.18530273 C63.46760021 53.54818346 58.48335176 59.63769656 53.46850586 65.71508789 C52.73784912 66.61275879 52.73784912 66.61275879 51.99243164 67.52856445 C50.94165784 68.8007807 49.84822491 70.03770765 48.74194336 71.26196289 C47.45628003 73.09363131 47.45628003 73.09363131 47.91870117 75.40795898 C48.79169629 78.49689 50.06275292 80.59609123 51.85913086 83.25415039 C52.5171167 84.23480469 53.17510254 85.21545898 53.85302734 86.22583008 C54.56015869 87.26126953 55.26729004 88.29670898 55.99584961 89.36352539 C56.71264893 90.42732422 57.42944824 91.49112305 58.16796875 92.5871582 C63.03846569 99.7875414 67.999001 106.92416459 73.13964844 113.93481445 C75.34017311 116.97757277 76.93543797 119.43349995 77.68334961 123.11352539 C68.99103305 126.01096424 57.64474781 125.58730772 48.68334961 124.11352539 C44.07491196 121.34273803 42.77913338 117.94247047 40.68334961 113.11352539 C39.43804137 110.99444302 38.12484328 108.92957251 36.79663086 106.86157227 C35.49255025 104.83071894 34.23479681 102.77675459 32.98022461 100.71508789 C31.08599812 97.66292362 28.99955011 94.86534159 26.68334961 92.11352539 C23.73313779 94.80719705 22.78378756 96.77940852 22.47802734 100.84082031 C22.44136963 101.91436768 22.40471191 102.98791504 22.36694336 104.09399414 C22.32504883 105.25737305 22.2831543 106.42075195 22.23999023 107.61938477 C22.20067383 108.83432617 22.16135742 110.04926758 22.12084961 111.30102539 C22.07766602 112.52756836 22.03448242 113.75411133 21.98999023 115.01782227 C21.88381947 118.04958731 21.78307197 121.08154139 21.68334961 124.11352539 C13.43334961 124.11352539 5.18334961 124.11352539 -3.31665039 124.11352539 C-3.33919756 108.09358688 -3.35762965 92.07366185 -3.36846256 76.05371189 C-3.37362548 68.61588029 -3.38066811 61.17805922 -3.39208984 53.74023438 C-3.4020368 47.25971197 -3.40850385 40.7791972 -3.41073889 34.29866737 C-3.41204597 30.86521997 -3.41513169 27.43179439 -3.42238045 23.99835396 C-3.43039455 20.17158718 -3.43064152 16.34484204 -3.43017578 12.51806641 C-3.43377106 11.37152084 -3.43736633 10.22497528 -3.44107056 9.04368591 C-3.43969589 8.0073703 -3.43832123 6.97105469 -3.43690491 5.90333557 C-3.4378267 4.99721307 -3.43874849 4.09109056 -3.43969822 3.1575098 C-3.26269173 0.21720183 -2.94837912 0.14448269 0 0 Z " fill="#000000" transform="translate(447.316650390625,167.886474609375)"/>
<path d="M0 0 C7.63192185 4.60924312 11.95730354 9.56498468 14.1796875 18.31640625 C15.3841195 25.68807757 15.30710507 32.98557252 15.27734375 40.44140625 C15.2754753 41.79760689 15.27405342 43.15380821 15.27305603 44.51000977 C15.26926446 48.05436108 15.25946345 51.59867046 15.24835205 55.14300537 C15.23806512 58.76981031 15.23354291 62.39662213 15.22851562 66.0234375 C15.21783768 73.12111239 15.20026867 80.21875215 15.1796875 87.31640625 C6.9296875 87.31640625 -1.3203125 87.31640625 -9.8203125 87.31640625 C-9.88089844 83.89523437 -9.94148438 80.4740625 -10.00390625 76.94921875 C-10.06584025 73.60968126 -10.12916779 70.27017288 -10.19262695 66.93066406 C-10.23574901 64.62242256 -10.27743848 62.31415381 -10.31762695 60.00585938 C-10.37588441 56.67439588 -10.43941453 53.34306671 -10.50390625 50.01171875 C-10.52061874 48.99151642 -10.53733124 47.97131409 -10.55455017 46.92019653 C-10.27537094 33.71471221 -10.27537094 33.71471221 -15.8203125 22.31640625 C-18.80910067 19.96807269 -22.04237332 19.89523476 -25.79296875 20 C-29.20260434 20.53213966 -31.24541901 22.10080023 -33.8203125 24.31640625 C-37.22264843 29.0092834 -37.93238096 33.02573523 -38.02563477 38.72753906 C-38.04557999 39.80835754 -38.06552521 40.88917603 -38.08607483 42.00274658 C-38.11114357 43.74355499 -38.11114357 43.74355499 -38.13671875 45.51953125 C-38.15749985 46.71245789 -38.17828094 47.90538452 -38.19969177 49.13446045 C-38.26507489 52.94505048 -38.32402026 56.75570939 -38.3828125 60.56640625 C-38.42600839 63.14974671 -38.46962302 65.7330802 -38.51367188 68.31640625 C-38.62153273 74.64967 -38.72069043 80.98298607 -38.8203125 87.31640625 C-47.4003125 87.31640625 -55.9803125 87.31640625 -64.8203125 87.31640625 C-64.8203125 57.94640625 -64.8203125 28.57640625 -64.8203125 -1.68359375 C-56.2403125 -1.68359375 -47.6603125 -1.68359375 -38.8203125 -1.68359375 C-38.4903125 0.62640625 -38.1603125 2.93640625 -37.8203125 5.31640625 C-37.31242187 4.90648437 -36.80453125 4.4965625 -36.28125 4.07421875 C-35.24871094 3.26597656 -35.24871094 3.26597656 -34.1953125 2.44140625 C-33.52242188 1.90773437 -32.84953125 1.3740625 -32.15625 0.82421875 C-23.34284062 -4.86470436 -9.27291526 -4.48034795 0 0 Z " fill="#000000" transform="translate(416.8203125,204.68359375)"/>
<path d="M0 0 C10.58336837 8.56204036 13.86749854 18.8682805 16 32 C16 36.95 16 41.9 16 47 C-12.215 47.495 -12.215 47.495 -41 48 C-38.8111483 56.02546492 -38.8111483 56.02546492 -34 61 C-33.319375 61.556875 -32.63875 62.11375 -31.9375 62.6875 C-27.15404269 65.92790656 -21.54366586 65.65686666 -16 65 C-10.97579248 63.23197045 -6.99048879 61.48573318 -4 57 C1.96652354 58.57013777 6.82909025 61.75029782 12 65 C11.03678089 70.88854568 8.53862106 74.14554632 3.796875 77.609375 C-8.16751295 85.20939502 -20.85840947 86.89352481 -34.703125 84.30859375 C-41.5021214 82.41910521 -46.87711729 79.8612887 -52 75 C-52.68835938 74.36320312 -53.37671875 73.72640625 -54.0859375 73.0703125 C-63.03391277 63.98928183 -66.09100745 52.35591533 -66.25 39.875 C-66.12067026 26.64456724 -62.50575973 13.53412831 -53.3125 3.625 C-38.81414968 -9.75594374 -16.25490976 -11.34667768 0 0 Z M-37.58203125 17.8359375 C-40.43695154 22.13065908 -41.10592695 24.63556168 -42 30 C-30.78 29.67 -19.56 29.34 -8 29 C-9.8522558 21.59097681 -10.69298173 18.76575521 -16 14 C-23.20760363 9.74936196 -32.1975894 11.58732597 -37.58203125 17.8359375 Z " fill="#000000" transform="translate(876,209)"/>
<path d="M0 0 C6.17909251 4.98110518 11.83672628 11.77884492 13.33047485 19.7709198 C13.53210081 22.19373743 13.62009793 24.59257729 13.66015625 27.0234375 C13.68887314 27.92676315 13.71759003 28.83008881 13.74717712 29.76078796 C14.05765761 40.78882172 14.02298188 51.82429716 13.9765625 62.85546875 C13.97152814 64.97591038 13.96696872 67.09635319 13.96289062 69.21679688 C13.95205981 74.32555099 13.93490658 79.43424609 13.9140625 84.54296875 C12.32243294 84.54890811 10.73079693 84.55313281 9.13916016 84.55664062 C7.80964828 84.56044739 7.80964828 84.56044739 6.45327759 84.56433105 C3.37992241 84.53847505 0.34874378 84.32759026 -2.7109375 84.04296875 C-3.73445312 83.95015625 -4.75796875 83.85734375 -5.8125 83.76171875 C-6.56273437 83.68953125 -7.31296875 83.61734375 -8.0859375 83.54296875 C-8.7459375 81.56296875 -9.4059375 79.58296875 -10.0859375 77.54296875 C-10.48683594 77.94128906 -10.88773438 78.33960938 -11.30078125 78.75 C-18.49384244 85.4537373 -25.42879481 87.05027064 -35.15625 86.765625 C-43.79557348 86.10903642 -49.62818338 84.16154865 -55.7734375 77.73046875 C-61.5135066 69.81848161 -61.90329961 63.22814989 -61.0859375 53.54296875 C-59.77752041 47.12259652 -56.47396595 41.86317501 -51.078125 38.16796875 C-42.16090007 32.94812977 -33.20684308 31.03121842 -23.0234375 29.85546875 C-21.96705078 29.72591797 -20.91066406 29.59636719 -19.82226562 29.46289062 C-17.24437162 29.1479443 -14.66577588 28.84149153 -12.0859375 28.54296875 C-11.88440376 23.19859258 -12.57956541 20.71270854 -16.0859375 16.54296875 C-19.750737 14.20156907 -22.99763665 14.3336833 -27.16015625 15 C-31.83545175 16.31818676 -34.34367088 19.79494245 -37.0859375 23.54296875 C-43.63443063 22.38091882 -49.83131894 20.8091349 -56.0859375 18.54296875 C-55.78470527 11.31339533 -52.58443001 7.10590718 -47.6015625 2.03125 C-35.80524262 -8.52835893 -12.92772501 -8.78158213 0 0 Z M-35.0859375 52.54296875 C-36.98311963 55.13003529 -37.09604753 56.30032792 -36.9609375 59.54296875 C-35.96382451 62.96164187 -34.81351639 64.31131329 -32.0859375 66.54296875 C-28.60047574 68.28569963 -24.8967079 67.9857915 -21.0859375 67.54296875 C-17.18589421 66.23798295 -14.62487836 64.29748595 -12.2109375 60.91796875 C-10.74424074 56.51787846 -10.11932016 52.18315908 -10.0859375 47.54296875 C-10.4159375 46.88296875 -10.7459375 46.22296875 -11.0859375 45.54296875 C-20.50485067 45.07548593 -28.04542563 45.70953076 -35.0859375 52.54296875 Z " fill="#000000" transform="translate(707.0859375,207.45703125)"/>
<path d="M0 0 C8.91 0 17.82 0 27 0 C33.09760518 18.97032724 39.0768657 37.97467324 45 57 C46.3996354 54.33367739 47.48461597 51.74073268 48.37280273 48.86499023 C48.62323837 48.05992538 48.87367401 47.25486053 49.13169861 46.42539978 C49.39632401 45.56185379 49.6609494 44.6983078 49.93359375 43.80859375 C50.21219742 42.90810806 50.49080109 42.00762238 50.77784729 41.07984924 C51.36697748 39.1731271 51.95441538 37.26588138 52.5402832 35.3581543 C53.42713598 32.47123736 54.31954722 29.58608606 55.21289062 26.70117188 C55.78679174 24.84124868 56.36036945 22.98122565 56.93359375 21.12109375 C57.3274955 19.84702919 57.3274955 19.84702919 57.72935486 18.54722595 C59.61703654 12.39015489 61.30334866 6.22105493 63 0 C71.91 0 80.82 0 90 0 C86.62437819 12.37727999 86.62437819 12.37727999 85.04223633 17.0402832 C84.68789017 18.08960526 84.33354401 19.13892731 83.96846008 20.220047 C83.59343857 21.3191893 83.21841705 22.4183316 82.83203125 23.55078125 C82.43352463 24.72601852 82.03501801 25.9012558 81.62443542 27.11210632 C80.7830275 29.59098223 79.94000833 32.06931175 79.09545898 34.54711914 C77.82956855 38.26240518 76.56964761 41.97967387 75.31054688 45.69726562 C70.38649086 60.20109275 65.28783211 74.62465941 60 89 C50.1 89 40.2 89 30 89 C24.03266584 73.13725458 18.54983169 57.12502576 13.12744141 41.0703125 C11.86381546 37.32922513 10.59497831 33.58992788 9.3247776 29.8510685 C8.33773001 26.94359204 7.3535906 24.03513766 6.37031174 21.12638474 C5.90319312 19.74581393 5.43513217 18.36556157 4.96608353 16.98564529 C4.31505684 15.06907988 3.66841892 13.15102537 3.02197266 11.23291016 C2.65447906 10.14660309 2.28698547 9.06029602 1.90835571 7.94107056 C1 5 1 5 0 0 Z " fill="#000000" transform="translate(723,203)"/>
<path d="M0 0 C8.25 0 16.5 0 25 0 C25 40.92 25 81.84 25 124 C16.75 124 8.5 124 0 124 C0 83.08 0 42.16 0 0 Z " fill="#000000" transform="translate(315,168)"/>
</svg>
