<?xml version="1.0" encoding="UTF-8"?>
<svg version="1.1" xmlns="http://www.w3.org/2000/svg" width="500" height="672">
<path d="M0 0 C165 0 330 0 500 0 C500 221.76 500 443.52 500 672 C335 672 170 672 0 672 C0 450.24 0 228.48 0 0 Z " fill="#0F91DB" transform="translate(0,0)"/>
<path d="M0 0 C165 0 330 0 500 0 C500 221.76 500 443.52 500 672 C335 672 170 672 0 672 C0 450.24 0 228.48 0 0 Z M248 18 C243.33334981 23.12298314 240.18658942 28.74979759 236.875 34.8125 C231.78937135 43.9493194 226.47292938 52.81404365 220.66552734 61.50683594 C219.06849959 63.89746147 217.47904682 66.29301011 215.89129639 68.68980408 C198.90643364 94.32397182 181.54530233 119.55224298 162.84375 143.97265625 C158.03844901 150.24821821 153.30121316 156.57368602 148.56884766 162.90429688 C146.85497055 165.1937337 145.13681675 167.47991801 143.41796875 169.765625 C136.58499157 178.8552758 129.7930129 187.97270223 123.05908203 197.13598633 C119.39998952 202.11150384 115.71317787 207.06474014 112 212 C71.51223119 265.88480405 32.26716554 320.77086993 22 389 C21.88285645 389.72719238 21.76571289 390.45438477 21.64501953 391.20361328 C12.91977084 446.47216481 28.70907845 504.90505322 60.9375 550.17578125 C74.38664892 568.64582853 89.77976298 586.11431453 108 600 C108.50837402 600.4007373 109.01674805 600.80147461 109.54052734 601.21435547 C140.37221412 625.49673705 177.38210131 640.72052777 216 647 C217.27101562 647.22429688 218.54203125 647.44859375 219.8515625 647.6796875 C275.75404326 655.99105429 335.7107911 640.81005656 381.5625 608.125 C383.37838368 606.75447174 385.19077681 605.37930877 387 604 C387.98355469 603.29488281 388.96710938 602.58976563 389.98046875 601.86328125 C408.04343142 588.64136901 424.30193305 571.37354274 437 553 C437.44585449 552.36690918 437.89170898 551.73381836 438.35107422 551.08154297 C444.89275468 541.76402301 450.69527403 532.07019508 456 522 C456.33741211 521.36465332 456.67482422 520.72930664 457.02246094 520.07470703 C470.7291119 493.85822975 478.98093797 463.48948348 479.23828125 433.875 C479.2480751 432.93813354 479.25786896 432.00126709 479.26795959 431.03601074 C479.43400059 411.04661758 479.52509233 391.58080076 475 372 C474.69449219 370.62908203 474.69449219 370.62908203 474.3828125 369.23046875 C465.98507754 332.58109458 448.42985868 297.7009323 427 267 C426.50951172 266.29230469 426.01902344 265.58460938 425.51367188 264.85546875 C414.1935598 248.52350068 402.60973669 232.4018264 390.65429688 216.52905273 C386.41733935 210.90204723 382.22698984 205.24328823 378.0625 199.5625 C373.11408477 192.81848689 368.08301753 186.14308525 363 179.5 C356.13446263 170.52528518 349.399245 161.462664 342.72216797 152.34716797 C340.97709387 149.96878089 339.22592383 147.59500866 337.47265625 145.22265625 C330.11793789 135.26988642 322.83382616 125.26925741 315.60449219 115.22509766 C314.00361537 113.00501377 312.39724569 110.78901451 310.7890625 108.57421875 C293.49538161 84.74591272 276.19423677 60.73420962 261.92919922 34.93579102 C259.68800207 30.88708292 257.38449284 26.88898698 254.91796875 22.97265625 C254.45543701 22.234104 253.99290527 21.49555176 253.51635742 20.73461914 C251.74567287 18.70906549 250.62390145 18.36336365 248 18 Z " fill="#FBFBFB" transform="translate(0,0)"/>
<path d="M0 0 C5.14468582 1.83218764 7.25086169 5.68524324 10.3125 10.0546875 C10.96549072 10.95582275 11.61848145 11.85695801 12.29125977 12.78540039 C13.6490581 14.66045524 14.99999155 16.54049915 16.34423828 18.42529297 C19.27063492 22.52050592 22.26048628 26.5679581 25.25 30.6171875 C25.81783203 31.39046387 26.38566406 32.16374023 26.97070312 32.96044922 C32.01453816 39.81876578 37.17719059 46.58324863 42.35131836 53.34350586 C46.73304857 59.07850297 51.04781117 64.85722714 55.3125 70.6796875 C62.28081982 80.19194943 69.43340928 89.55906311 76.59423828 98.92675781 C79.46195437 102.68681523 82.29846034 106.46961646 85.12890625 110.2578125 C86.75803471 112.43775542 88.39085817 114.61465542 90.02734375 116.7890625 C112.48161098 146.63447922 112.48161098 146.63447922 122.83935547 162 C124.46821513 164.41008603 126.1114772 166.81008068 127.75390625 169.2109375 C135.24578288 180.22380318 142.22488662 191.32919276 148.3125 203.1796875 C148.82699707 204.17742187 149.34149414 205.17515625 149.87158203 206.203125 C155.96187334 218.129871 161.6448968 230.10393493 165.9375 242.8046875 C166.24381348 243.70203613 166.55012695 244.59938477 166.86572266 245.52392578 C171.39446325 259.70096456 172.81443957 273.70588715 172.70361328 288.50830078 C172.68755214 291.04644841 172.70355807 293.58299421 172.72265625 296.12109375 C172.74187458 310.87045138 171.01051414 325.43754157 167.0625 339.6796875 C166.74563232 340.83911865 166.74563232 340.83911865 166.42236328 342.02197266 C158.84256424 368.94032575 146.36492172 392.56876167 127.26171875 413.078125 C125.51722294 414.95896417 123.87782432 416.88586781 122.25 418.8671875 C98.50031022 446.74460217 59.81751712 463.68659571 24.3125 469.1796875 C23.11625 469.38464844 21.92 469.58960938 20.6875 469.80078125 C-2.72095683 473.45835263 -27.05521594 470.95431798 -49.6875 464.1796875 C-50.75943604 463.86475342 -50.75943604 463.86475342 -51.85302734 463.54345703 C-63.09678067 460.18714913 -73.38154476 455.76252769 -83.6875 450.1796875 C-84.57598633 449.71224121 -84.57598633 449.71224121 -85.48242188 449.23535156 C-100.479346 441.335634 -113.54392755 430.9416616 -125.6875 419.1796875 C-126.21972168 418.67324707 -126.75194336 418.16680664 -127.30029297 417.64501953 C-136.98349957 408.41629021 -146.71619252 398.81377467 -151.6875 386.1796875 C-147.70046812 385.88714071 -145.82058756 386.37190311 -142.67578125 388.8203125 C-141.92723877 389.39048096 -141.17869629 389.96064941 -140.4074707 390.5480957 C-139.21577271 391.47948364 -139.21577271 391.47948364 -138 392.4296875 C-136.29404024 393.72318849 -134.58564917 395.01348837 -132.875 396.30078125 C-131.57755859 397.27893799 -131.57755859 397.27893799 -130.25390625 398.27685547 C-98.97788056 421.46610054 -60.17370824 441.17904317 -20.4140625 441.3828125 C-19.5320517 441.38851257 -18.65004089 441.39421265 -17.74130249 441.40008545 C-15.87718895 441.40949612 -14.01305906 441.41605371 -12.14892578 441.41992188 C-9.35548098 441.42953952 -6.56280109 441.46056371 -3.76953125 441.4921875 C7.5996897 441.55985467 18.21329822 440.64419964 29.3125 438.1796875 C30.75616943 437.86692871 30.75616943 437.86692871 32.22900391 437.54785156 C51.14776857 433.15697396 69.80409509 424.94552782 85.3125 413.1796875 C86.53839844 412.26509766 86.53839844 412.26509766 87.7890625 411.33203125 C90.3589502 409.34546726 92.84262109 407.28937574 95.3125 405.1796875 C95.81394531 404.75204102 96.31539063 404.32439453 96.83203125 403.88378906 C108.99399633 393.40112208 118.87385601 382.01301923 125.3125 367.1796875 C124.44109375 367.23769531 123.5696875 367.29570312 122.671875 367.35546875 C108.37684926 367.896947 99.30396917 362.89024722 88.3125 354.1796875 C86.765625 353.035 86.765625 353.035 85.1875 351.8671875 C70.0757469 337.74098351 60.09171277 318.02227752 58.9921875 297.25390625 C58.34087566 276.68189153 63.06902113 258.68225842 77.3125 243.1796875 C85.30847939 234.94457601 96.31364506 226.43771508 108.1875 226.0546875 C109.21875 226.0959375 110.25 226.1371875 111.3125 226.1796875 C110.89824816 222.20286981 110.20917134 220.08354659 107.36328125 217.21484375 C101.76513974 212.88550001 95.79705648 209.77972007 89.375 206.8671875 C88.66085937 206.54177979 87.94671875 206.21637207 87.2109375 205.88110352 C76.65875708 201.32372667 66.45839288 199.63909142 55 199.7421875 C53.22061035 199.75354736 53.22061035 199.75354736 51.40527344 199.76513672 C42.41456787 199.93382018 34.77333307 200.99197927 26.3125 204.1796875 C25.09046875 204.60378906 23.8684375 205.02789062 22.609375 205.46484375 C-3.86494913 215.01128388 -21.36055106 233.93163885 -37.95068359 255.89013672 C-50.55219721 272.50202802 -63.29402241 289.06969712 -77.6875 304.1796875 C-78.55761719 305.11425781 -79.42773438 306.04882812 -80.32421875 307.01171875 C-93.91274292 321.19536077 -110.97633522 333.14398334 -131.24853516 333.61083984 C-140.83448337 333.63346874 -148.16338962 332.97134718 -156.6875 328.1796875 C-157.66203125 327.71046875 -158.6365625 327.24125 -159.640625 326.7578125 C-166.80025694 323.19713993 -172.13934969 319.64796961 -174.8203125 311.91015625 C-176.31894599 305.35203362 -176.0360297 298.55801877 -176 291.8671875 C-175.99676727 290.79614273 -175.99676727 290.79614273 -175.99346924 289.70346069 C-175.93822767 278.30214471 -175.34992262 267.29964283 -172.6875 256.1796875 C-172.49414062 255.36064941 -172.30078125 254.54161133 -172.1015625 253.69775391 C-163.21601396 217.29854311 -143.27335505 184.02929133 -121.15722656 154.17871094 C-119.41899228 151.81448132 -117.72642753 149.4207392 -116.03881836 147.02026367 C-100.69558154 125.22688073 -83.85931513 104.44620069 -67.37402344 83.51171875 C-61.18014209 75.64443497 -55.01650876 67.75438705 -48.87524414 59.84594727 C-45.799605 55.88735755 -42.71368547 51.93764141 -39.60571289 48.00439453 C-28.9454709 34.50853219 -18.56719284 20.78608903 -8.31665039 6.97705078 C-3.2811166 0.21937698 -3.2811166 0.21937698 0 0 Z " fill="#FAFBFB" transform="translate(251.6875,123.8203125)"/>
<path d="M0 0 C5.94 0.33 11.88 0.66 18 1 C16.875 6.625 16.875 6.625 14 9 C14.66 7.02 15.32 5.04 16 3 C15.34 3.66 14.68 4.32 14 5 C12.01178687 5.39764263 10.01055661 5.73775349 8 6 C8.33 5.01 8.66 4.02 9 3 C4.545 2.01 4.545 2.01 0 1 C0 0.67 0 0.34 0 0 Z " fill="#0B86D7" transform="translate(359,490)"/>
<path d="M0 0 C-0.33 1.32 -0.66 2.64 -1 4 C-1.66 4 -2.32 4 -3 4 C-2.79375 4.928125 -2.5875 5.85625 -2.375 6.8125 C-2 10 -2 10 -4 13 C-4.66 13 -5.32 13 -6 13 C-5.719172 11.01926635 -5.42503386 9.04041552 -5.125 7.0625 C-4.96257812 5.96035156 -4.80015625 4.85820312 -4.6328125 3.72265625 C-4.42398437 2.82417969 -4.21515625 1.92570312 -4 1 C-2 0 -2 0 0 0 Z " fill="#2193DB" transform="translate(425,448)"/>
<path d="M0 0 C0.66 0 1.32 0 2 0 C1.67 4.29 1.34 8.58 1 13 C0.67 13 0.34 13 0 13 C0 10.03 0 7.06 0 4 C-0.66 4 -1.32 4 -2 4 C-2 3.34 -2 2.68 -2 2 C-1.34 2 -0.68 2 0 2 C0 1.34 0 0.68 0 0 Z " fill="#0A85D6" transform="translate(477,438)"/>
<path d="M0 0 C4.29 0 8.58 0 13 0 C9.83759418 2.10827055 8.49342531 2.33817465 4.8125 2.625 C3.46091797 2.73714844 3.46091797 2.73714844 2.08203125 2.8515625 C1.05142578 2.92503906 1.05142578 2.92503906 0 3 C0 2.01 0 1.02 0 0 Z " fill="#0A84D6" transform="translate(290,642)"/>
<path d="M0 0 C0.66 0.33 1.32 0.66 2 1 C1.67 1.99 1.34 2.98 1 4 C2.65 4.99 4.3 5.98 6 7 C5.01 7.495 5.01 7.495 4 8 C2.0546875 7.00390625 2.0546875 7.00390625 -0.125 5.5625 C-0.84945312 5.08941406 -1.57390625 4.61632812 -2.3203125 4.12890625 C-2.87460938 3.75636719 -3.42890625 3.38382813 -4 3 C-2.68 2.01 -1.36 1.02 0 0 Z " fill="#0885D7" transform="translate(131,610)"/>
<path d="M0 0 C0.99 0.33 1.98 0.66 3 1 C2.67 2.32 2.34 3.64 2 5 C3.32 5.33 4.64 5.66 6 6 C3.69 6.33 1.38 6.66 -1 7 C-1.33 6.01 -1.66 5.02 -2 4 C-1.34 4 -0.68 4 0 4 C0 2.68 0 1.36 0 0 Z " fill="#0989D8" transform="translate(286,554)"/>
<path d="M0 0 C0.66 0.33 1.32 0.66 2 1 C1.43224464 2.29858939 0.84508337 3.58870441 0.25 4.875 C-0.07484375 5.59429688 -0.3996875 6.31359375 -0.734375 7.0546875 C-2.21929686 9.3370674 -3.50415408 10.00375898 -6 11 C-4.54955729 6.89041233 -2.48889248 3.56741255 0 0 Z " fill="#0B84D6" transform="translate(400,508)"/>
<path d="M0 0 C0.33 0.66 0.66 1.32 1 2 C-0.59617578 5.83082186 -1.49984971 7.66656647 -5 10 C-3.84414715 6.08788267 -2.64465038 3.1254959 0 0 Z " fill="#0984D7" transform="translate(65,279)"/>
<path d="M0 0 C0.99 0.66 1.98 1.32 3 2 C1.35 3.32 -0.3 4.64 -2 6 C-2.66 5.67 -3.32 5.34 -4 5 C-2.25 1.125 -2.25 1.125 0 0 Z " fill="#0886D6" transform="translate(389,598)"/>
</svg>
